<svg width="62" height="60" viewBox="0 0 62 60" fill="none" xmlns="http://www.w3.org/2000/svg">
<g opacity="0.8">
<path d="M5.02586 30.1531C5.87586 31.2531 7.42586 31.4531 8.52586 30.6282L11.0009 28.7281V49.6782C11.0009 51.0532 12.1259 52.1782 13.5009 52.1782H48.5009C49.8759 52.1782 51.0009 51.0532 51.0009 49.6782V28.7281L53.4759 30.6282C54.5759 31.4782 56.1509 31.2531 56.9759 30.1531C57.1767 29.893 57.3239 29.5956 57.4088 29.2781C57.4938 28.9606 57.5147 28.6294 57.4705 28.3038C57.4263 27.9781 57.3179 27.6645 57.1514 27.3811C56.9849 27.0978 56.7638 26.8503 56.5009 26.6531L32.5009 8.32815C31.6009 7.65315 30.3509 7.65315 29.4759 8.32815L5.47586 26.6531C4.40086 27.5031 4.17586 29.0781 5.02586 30.1531ZM21.0009 37.1782C19.6259 37.1782 18.5009 36.0532 18.5009 34.6782C18.5009 33.3032 19.6259 32.1782 21.0009 32.1782C22.3759 32.1782 23.5009 33.3032 23.5009 34.6782C23.5009 36.0532 22.3759 37.1782 21.0009 37.1782ZM31.0009 37.1782C29.6259 37.1782 28.5009 36.0532 28.5009 34.6782C28.5009 33.3032 29.6259 32.1782 31.0009 32.1782C32.3759 32.1782 33.5009 33.3032 33.5009 34.6782C33.5009 36.0532 32.3759 37.1782 31.0009 37.1782ZM41.0009 37.1782C39.6259 37.1782 38.5009 36.0532 38.5009 34.6782C38.5009 33.3032 39.6259 32.1782 41.0009 32.1782C42.3759 32.1782 43.5009 33.3032 43.5009 34.6782C43.5009 36.0532 42.3759 37.1782 41.0009 37.1782Z" fill="#FFD503"/>
</g>
</svg>
