<svg width="25" height="24" viewBox="0 0 25 24" fill="none" xmlns="http://www.w3.org/2000/svg">
<path d="M9.594 21.006C8.9652 20.9719 8.37348 20.6977 7.941 20.24C7.4236 19.7422 6.96188 19.1896 6.564 18.592C5.94248 17.702 5.45119 16.7278 5.105 15.699C4.71321 14.5921 4.50709 13.4281 4.495 12.254C4.46456 11.102 4.74986 9.96354 5.32 8.962C5.73758 8.2401 6.33319 7.63725 7.05 7.211C7.75889 6.78656 8.56782 6.5581 9.394 6.549C10.0168 6.58585 10.6289 6.7282 11.204 6.97C11.663 7.172 12.145 7.314 12.64 7.392C13.186 7.27762 13.7196 7.11015 14.233 6.892C14.8407 6.65473 15.4841 6.52186 16.136 6.499C16.223 6.499 16.309 6.499 16.392 6.509C17.822 6.55 19.152 7.252 19.992 8.409C19.3364 8.75963 18.7909 9.28519 18.4161 9.92726C18.0414 10.5693 17.852 11.3027 17.869 12.046C17.8625 12.6143 17.9765 13.1776 18.2035 13.6987C18.4305 14.2197 18.7653 14.6868 19.186 15.069C19.569 15.4338 20.0148 15.7261 20.502 15.932C20.402 16.232 20.287 16.522 20.165 16.814C19.888 17.4593 19.5463 18.0747 19.145 18.651C18.7656 19.2283 18.3239 19.7621 17.828 20.243C17.3756 20.6919 16.7726 20.9567 16.136 20.986C15.5964 20.9621 15.0662 20.8355 14.574 20.613C14.0432 20.3818 13.4728 20.2551 12.894 20.24C12.2989 20.2517 11.7116 20.3777 11.164 20.611C10.691 20.8244 10.1858 20.9572 9.669 21.004L9.594 21.006ZM12.744 6.499C12.669 6.499 12.594 6.499 12.519 6.49C12.5032 6.37097 12.4949 6.25107 12.494 6.131C12.5267 5.13213 12.9171 4.17824 13.594 3.443C13.9726 3.02046 14.4315 2.67746 14.944 2.434C15.4216 2.18815 15.9435 2.04026 16.479 1.999C16.494 2.13 16.494 2.258 16.494 2.38C16.4799 3.36317 16.1105 4.30802 15.454 5.04C15.1361 5.46622 14.7288 5.8177 14.2606 6.06975C13.7925 6.32179 13.2748 6.46831 12.744 6.499Z" fill="black"/>
</svg>
