<svg width="37" height="35" viewBox="0 0 37 35" fill="none" xmlns="http://www.w3.org/2000/svg">
<ellipse cx="18.5" cy="17.5" rx="18.5" ry="17.5" fill="#444343"/>
<path fill-rule="evenodd" clip-rule="evenodd" d="M9.51429 17.8009C9.51429 22.1521 12.8543 25.7703 17.2226 26.504V20.1829H14.9101V17.752H17.2226V15.8069C17.2226 13.6189 18.7126 12.4038 20.8201 12.4038C21.4876 12.4038 22.2076 12.5008 22.8751 12.5978V14.8347H21.6935C20.5626 14.8347 20.306 15.3693 20.306 16.0505V17.752H22.7726L22.3618 20.1829H20.306V26.504C24.6743 25.7703 28.0143 22.1528 28.0143 17.8009C28.0143 12.9603 23.8518 9 18.7643 9C13.6768 9 9.51429 12.9603 9.51429 17.8009Z" fill="white"/>
</svg>
