<svg width="37" height="35" viewBox="0 0 37 35" fill="none" xmlns="http://www.w3.org/2000/svg">
<ellipse cx="18.5" cy="17.5" rx="18.5" ry="17.5" fill="#444343"/>
<path d="M19.0266 15.6668C17.6678 15.6668 16.5589 16.716 16.5589 18.0016C16.5589 19.2873 17.6678 20.3365 19.0266 20.3365C20.3854 20.3365 21.4943 19.2873 21.4943 18.0016C21.4943 16.716 20.3854 15.6668 19.0266 15.6668ZM26.4277 18.0016C26.4277 17.0348 26.437 16.0766 26.3796 15.1115C26.3222 13.9905 26.0519 12.9956 25.1856 12.1758C24.3174 11.3543 23.2677 11.1004 22.0829 11.0461C21.0611 10.9918 20.0485 11.0005 19.0284 11.0005C18.0066 11.0005 16.9939 10.9918 15.9739 11.0461C14.7891 11.1004 13.7377 11.3561 12.8713 12.1758C12.0031 12.9973 11.7346 13.9905 11.6773 15.1115C11.6199 16.0784 11.6291 17.0365 11.6291 18.0016C11.6291 18.9668 11.6199 19.9266 11.6773 20.8918C11.7346 22.0128 12.0049 23.0077 12.8713 23.8274C13.7395 24.6489 14.7891 24.9029 15.9739 24.9572C16.9958 25.0115 18.0084 25.0028 19.0284 25.0028C20.0503 25.0028 21.0629 25.0115 22.0829 24.9572C23.2677 24.9029 24.3192 24.6472 25.1856 23.8274C26.0538 23.0059 26.3222 22.0128 26.3796 20.8918C26.4389 19.9266 26.4277 18.9685 26.4277 18.0016ZM19.0266 21.5942C16.9255 21.5942 15.2297 19.9897 15.2297 18.0016C15.2297 16.0136 16.9255 14.4091 19.0266 14.4091C21.1277 14.4091 22.8234 16.0136 22.8234 18.0016C22.8234 19.9897 21.1277 21.5942 19.0266 21.5942ZM22.9789 15.101C22.4884 15.101 22.0922 14.7262 22.0922 14.262C22.0922 13.7978 22.4884 13.423 22.9789 13.423C23.4695 13.423 23.8657 13.7978 23.8657 14.262C23.8658 14.3722 23.843 14.4814 23.7985 14.5832C23.754 14.6851 23.6886 14.7776 23.6063 14.8556C23.5239 14.9335 23.4261 14.9953 23.3184 15.0374C23.2108 15.0795 23.0954 15.1011 22.9789 15.101Z" fill="white"/>
</svg>
