<svg width="37" height="35" viewBox="0 0 37 35" fill="none" xmlns="http://www.w3.org/2000/svg">
<ellipse cx="18.5" cy="17.5" rx="18.5" ry="17.5" fill="#444343"/>
<g clip-path="url(#clip0_1_110)">
<path fill-rule="evenodd" clip-rule="evenodd" d="M11.3114 11.9866C11.3114 11.6453 11.4547 11.3181 11.7098 11.0768C11.9649 10.8355 12.3108 10.7 12.6716 10.7H26.2298C26.4086 10.6997 26.5857 10.7328 26.7509 10.7973C26.9161 10.8618 27.0663 10.9566 27.1928 11.0761C27.3192 11.1956 27.4195 11.3375 27.488 11.4938C27.5564 11.65 27.5915 11.8175 27.5914 11.9866V24.812C27.5916 24.9811 27.5566 25.1486 27.4883 25.3049C27.4199 25.4612 27.3197 25.6032 27.1933 25.7229C27.0669 25.8425 26.9168 25.9374 26.7516 26.0021C26.5864 26.0668 26.4094 26.1 26.2306 26.1H12.6716C12.4929 26.1 12.316 26.0667 12.1509 26.0019C11.9858 25.9372 11.8358 25.8424 11.7095 25.7229C11.5832 25.6033 11.4831 25.4614 11.4148 25.3052C11.3464 25.149 11.3113 24.9817 11.3114 24.8127V11.9866ZM17.7554 16.5716H19.9598V17.6188C20.278 17.0168 21.092 16.475 22.3152 16.475C24.6603 16.475 25.216 17.6741 25.216 19.8742V23.9496H22.8429V20.3754C22.8429 19.1224 22.5247 18.4154 21.7166 18.4154C20.5955 18.4154 20.1293 19.1777 20.1293 20.3754V23.9496H17.7554V16.5716ZM13.6854 23.8537H16.0593V16.475H13.6854V23.853V23.8537ZM16.3989 14.0684C16.4034 14.2606 16.3672 14.4518 16.2925 14.6307C16.2179 14.8095 16.1062 14.9725 15.964 15.11C15.8218 15.2475 15.652 15.3567 15.4646 15.4313C15.2772 15.5058 15.076 15.5442 14.8727 15.5442C14.6694 15.5442 14.4681 15.5058 14.2807 15.4313C14.0933 15.3567 13.9235 15.2475 13.7814 15.11C13.6392 14.9725 13.5275 14.8095 13.4528 14.6307C13.3781 14.4518 13.342 14.2606 13.3464 14.0684C13.3552 13.691 13.5199 13.3318 13.8051 13.0678C14.0904 12.8039 14.4736 12.656 14.8727 12.656C15.2717 12.656 15.6549 12.8039 15.9402 13.0678C16.2255 13.3318 16.3901 13.691 16.3989 14.0684Z" fill="white"/>
</g>
<defs>
<clipPath id="clip0_1_110">
<rect width="17.76" height="16.8" fill="white" transform="translate(10.5714 10)"/>
</clipPath>
</defs>
</svg>
