<svg width="50" height="45" viewBox="0 0 50 45" fill="none" xmlns="http://www.w3.org/2000/svg">
<path d="M8.33333 11.1111C9.43212 11.1111 10.5062 10.7853 11.4198 10.1748C12.3334 9.56438 13.0455 8.69672 13.466 7.68158C13.8865 6.66643 13.9965 5.5494 13.7821 4.47172C13.5678 3.39405 13.0387 2.40415 12.2617 1.62719C11.4847 0.850229 10.4948 0.321113 9.41717 0.106751C8.3395 -0.107611 7.22246 0.00240712 6.20731 0.422894C5.19217 0.843381 4.32451 1.55545 3.71406 2.46906C3.10361 3.38266 2.77778 4.45677 2.77778 5.55556C2.77778 7.02898 3.36309 8.44206 4.40496 9.48393C5.44683 10.5258 6.85991 11.1111 8.33333 11.1111ZM8.33333 26.3958C8.3321 25.8767 8.43642 25.3628 8.63996 24.8853C8.8435 24.4078 9.14202 23.9766 9.51736 23.6181L15.7786 17.7083C15.9219 17.5738 16.1059 17.5078 16.2656 17.3984C15.8571 16.3643 15.1472 15.4767 14.2281 14.8509C13.309 14.2251 12.223 13.8899 11.1111 13.8889H5.55556C4.08213 13.8889 2.66905 14.4742 1.62718 15.5161C0.585316 16.5579 0 17.971 0 19.4444L0 27.7778C0 28.5145 0.292658 29.221 0.813592 29.742C1.33453 30.2629 2.04107 30.5556 2.77778 30.5556V41.6667C2.77778 42.4034 3.07044 43.1099 3.59137 43.6309C4.1123 44.1518 4.81884 44.4444 5.55556 44.4444H11.1111C11.8478 44.4444 12.5544 44.1518 13.0753 43.6309C13.5962 43.1099 13.8889 42.4034 13.8889 41.6667V33.2995L9.51736 29.1736C9.1419 28.8151 8.8433 28.384 8.63975 27.9065C8.4362 27.4289 8.33194 26.9149 8.33333 26.3958ZM41.6667 11.1111C42.7654 11.1111 43.8396 10.7853 44.7532 10.1748C45.6668 9.56438 46.3788 8.69672 46.7993 7.68158C47.2198 6.66643 47.3298 5.5494 47.1155 4.47172C46.9011 3.39405 46.372 2.40415 45.595 1.62719C44.8181 0.850229 43.8282 0.321113 42.7505 0.106751C41.6728 -0.107611 40.5558 0.00240712 39.5406 0.422894C38.5255 0.843381 37.6578 1.55545 37.0474 2.46906C36.4369 3.38266 36.1111 4.45677 36.1111 5.55556C36.1111 7.02898 36.6964 8.44206 37.7383 9.48393C38.7802 10.5258 40.1932 11.1111 41.6667 11.1111ZM44.4444 13.8889H38.8889C37.7771 13.8899 36.6912 14.2249 35.7721 14.8506C34.8529 15.4762 34.143 16.3636 33.7344 17.3976C33.8941 17.5078 34.0816 17.5712 34.2222 17.7092L40.4826 23.6172C40.8568 23.9766 41.1546 24.4079 41.3579 24.8853C41.5613 25.3626 41.6662 25.8761 41.6662 26.395C41.6662 26.9138 41.5613 27.4273 41.3579 27.9047C41.1546 28.382 40.8568 28.8133 40.4826 29.1727L36.1111 33.3004V41.6667C36.1111 42.4034 36.4038 43.1099 36.9247 43.6309C37.4456 44.1518 38.1522 44.4444 38.8889 44.4444H44.4444C45.1812 44.4444 45.8877 44.1518 46.4086 43.6309C46.9296 43.1099 47.2222 42.4034 47.2222 41.6667V30.5556C47.9589 30.5556 48.6655 30.2629 49.1864 29.742C49.7073 29.221 50 28.5145 50 27.7778V19.4444C50 17.971 49.4147 16.5579 48.3728 15.5161C47.3309 14.4742 45.9179 13.8889 44.4444 13.8889ZM38.5764 25.6372L32.316 19.7292C32.1682 19.5883 31.9823 19.494 31.7814 19.4579C31.5804 19.4218 31.3733 19.4455 31.1857 19.5262C30.9982 19.6068 30.8385 19.7408 30.7264 19.9115C30.6144 20.0821 30.555 20.282 30.5556 20.4861V23.6111H19.4444V20.4861C19.4452 20.2819 19.3859 20.0819 19.2739 19.9111C19.162 19.7403 19.0022 19.6062 18.8147 19.5255C18.6271 19.4447 18.4199 19.4209 18.2189 19.457C18.0178 19.493 17.8319 19.5874 17.684 19.7283L11.4236 25.6372C11.2235 25.8388 11.1112 26.1113 11.1112 26.3954C11.1112 26.6795 11.2235 26.952 11.4236 27.1537L17.684 33.0625C17.8319 33.2035 18.018 33.2979 18.2191 33.3339C18.4202 33.3699 18.6274 33.346 18.8151 33.2652C19.0027 33.1843 19.1624 33.0501 19.2743 32.8791C19.3862 32.7082 19.4454 32.5081 19.4444 32.3038V29.1667H30.5556V32.3038C30.5546 32.5081 30.6138 32.7082 30.7257 32.8791C30.8376 33.0501 30.9973 33.1843 31.1849 33.2652C31.3726 33.346 31.5798 33.3699 31.7809 33.3339C31.982 33.2979 32.1681 33.2035 32.316 33.0625L38.5764 27.1537C38.7765 26.952 38.8888 26.6795 38.8888 26.3954C38.8888 26.1113 38.7765 25.8388 38.5764 25.6372Z" fill="#FFD503"/>
</svg>
