<svg width="61" height="60" viewBox="0 0 61 60" fill="none" xmlns="http://www.w3.org/2000/svg">
<path d="M51.3007 9.95215L31.3905 3.16699C31.1503 3.08496 30.828 3.04395 30.5057 3.04395C30.1835 3.04395 29.8612 3.08496 29.621 3.16699L9.71082 9.95215C9.22449 10.1162 8.82605 10.6787 8.82605 11.1943V39.46C8.82605 39.9756 9.16003 40.6553 9.56433 40.9775L29.7616 56.7158C29.9667 56.874 30.2303 56.9561 30.4999 56.9561C30.7694 56.9561 31.0389 56.874 31.2382 56.7158L51.4354 40.9775C51.8397 40.6611 52.1737 39.9814 52.1737 39.46V11.1943C52.1854 10.6787 51.787 10.1221 51.3007 9.95215ZM41.1991 19.96L28.7421 37.1104C28.6545 37.2302 28.5399 37.3277 28.4075 37.3949C28.2751 37.4622 28.1288 37.4972 27.9803 37.4972C27.8319 37.4972 27.6855 37.4622 27.5532 37.3949C27.4208 37.3277 27.3062 37.2302 27.2186 37.1104L19.8124 26.915C19.5897 26.6045 19.8124 26.1709 20.1932 26.1709H23.4276C23.7264 26.1709 24.0135 26.3174 24.1893 26.5576L27.9803 31.7725L36.8221 19.5967C36.9979 19.3564 37.2792 19.21 37.5839 19.21H40.8182C41.1991 19.2158 41.4217 19.6494 41.1991 19.96Z" fill="#FFD503"/>
</svg>
