<svg width="37" height="35" viewBox="0 0 37 35" fill="none" xmlns="http://www.w3.org/2000/svg">
<ellipse cx="18.5" cy="17.5" rx="18.5" ry="17.5" fill="#444343"/>
<path d="M28.2976 12.6265C27.6329 12.903 26.9288 13.0856 26.208 13.1684C26.9678 12.7369 27.5367 12.0596 27.8092 11.2617C27.0905 11.6561 26.3083 11.9362 25.4937 12.0909C24.9459 11.5371 24.2203 11.1699 23.4295 11.0462C22.6386 10.9224 21.8267 11.0491 21.1196 11.4066C20.4126 11.764 19.8501 12.3323 19.5192 13.0231C19.1884 13.714 19.1078 14.4888 19.2899 15.2274C16.2635 15.0935 13.5806 13.7177 11.7863 11.6393C11.4597 12.1649 11.2889 12.7641 11.2918 13.3738C11.2914 13.9406 11.4389 14.4987 11.7212 14.9986C12.0035 15.4985 12.4119 15.9247 12.9102 16.2394C12.3328 16.2228 11.768 16.0757 11.263 15.8103V15.8518C11.2628 16.6474 11.5533 17.4185 12.0854 18.0346C12.6174 18.6506 13.3582 19.0737 14.1823 19.232C13.8701 19.3109 13.5485 19.3514 13.2254 19.3523C12.9918 19.3523 12.7687 19.3307 12.5461 19.2919C12.7806 19.9765 13.2349 20.5749 13.8457 21.0038C14.4564 21.4327 15.1933 21.6708 15.9538 21.6849C14.6653 22.6396 13.0755 23.1576 11.4389 23.1557C11.149 23.1568 10.8593 23.1414 10.5714 23.1095C12.2409 24.1217 14.1825 24.659 16.1653 24.6576C22.8625 24.6576 26.5221 19.409 26.5221 14.8635C26.5221 14.7186 26.5221 14.571 26.5105 14.423C27.2264 13.9375 27.8433 13.3333 28.3314 12.6396L28.2976 12.6265Z" fill="white"/>
</svg>
